<?xml version="1.0" standalone="no"?>
<!DOCTYPE svg PUBLIC "-//W3C//DTD SVG 20010904//EN"
 "http://www.w3.org/TR/2001/REC-SVG-20010904/DTD/svg10.dtd">
<svg version="1.0" xmlns="http://www.w3.org/2000/svg"
 width="160.000000pt" height="160.000000pt" viewBox="0 0 160.000000 160.000000"
 preserveAspectRatio="xMidYMid meet">
<metadata>
Created by potrace 1.14, written by Peter Selinger 2001-2017
</metadata>
<g transform="translate(0.000000,160.000000) scale(0.100000,-0.100000)"
fill="#000000" stroke="none">
<path d="M643 1000 c-123 -55 -194 -283 -109 -352 46 -38 133 -11 177 55 l21
32 -29 -32 c-131 -145 -228 1 -126 189 43 78 117 132 137 99 6 -9 -15 -63 -36
-93 -7 -9 -9 -20 -5 -24 11 -12 37 19 52 62 23 67 -13 95 -82 64z"/>
<path d="M840 1012 c-34 -5 -60 -30 -60 -58 0 -38 19 -37 26 1 9 52 58 59 149
21 l35 -15 -27 -56 c-24 -49 -30 -55 -58 -55 -17 0 -40 -7 -51 -16 -18 -14
-17 -15 19 -12 20 2 37 0 37 -5 0 -5 -17 -33 -37 -64 -37 -53 -39 -54 -80 -50
-26 3 -49 -1 -60 -9 -17 -12 -17 -14 3 -34 19 -19 23 -20 61 -6 37 13 44 12
84 -5 45 -21 100 -22 106 -3 2 7 -15 14 -40 17 -24 3 -56 11 -72 17 l-28 11
29 32 c17 18 43 49 58 70 15 21 33 37 39 36 30 -4 41 3 19 11 l-22 9 27 58
c16 32 33 61 38 65 6 4 8 8 5 9 -29 5 -44 9 -72 17 -41 13 -95 19 -128 14z
m-41 -331 c12 -8 9 -11 -12 -16 -30 -8 -57 -1 -57 15 0 12 50 13 69 1z"/>
</g>
</svg>
